HIERARCHY
ROOT root
{
	OFFSET	0	13.1	24.9
	CHANNELS 6  Xposition Yposition Zposition Xrotation Yrotation Zrotation
	JOINT spine_1
	{
		OFFSET	0	9.99999	0
		CHANNELS 3  Xrotation Yrotation Zrotation
		JOINT spine_2
		{
			OFFSET	0	112	-10
			CHANNELS 3  Xrotation Yrotation Zrotation
			JOINT spine_3
			{
				OFFSET	0	206.5	19.3
				CHANNELS 3  Xrotation Yrotation Zrotation
				JOINT spine_4
				{
					OFFSET	0	110.4	14.6
					CHANNELS 3  Xrotation Yrotation Zrotation
					JOINT neck_1
					{
						OFFSET	0	71.8	-50.3
						CHANNELS 3  Xrotation Yrotation Zrotation
						JOINT neck_2
						{
							OFFSET	0	86.2	-25.8
							CHANNELS 3  Xrotation Yrotation Zrotation
							JOINT head_ee
							{
								OFFSET	0	179.8	-8.7
								CHANNELS 3  Xrotation Yrotation Zrotation
								End Site
								{
									OFFSET	1	0	0
								}
							}
						}
					}
					JOINT left_clavicle
					{
						OFFSET	-43.2	22.4	-70.8
						CHANNELS 3  Xrotation Yrotation Zrotation
						JOINT left_shoulder
						{
							OFFSET	-93.9	-5.79999	48.7
							CHANNELS 3  Xrotation Yrotation Zrotation
							JOINT left_elbow
							{
								OFFSET	-291.4	-30.8	15.2
								CHANNELS 3  Xrotation Yrotation Zrotation
								JOINT left_lowarm_twist
								{
									OFFSET	-110.7	-3.89999	13.6
									CHANNELS 3  Xrotation Yrotation Zrotation
									JOINT left_hand
									{
										OFFSET	-110.7	-3.89999	13.6
										CHANNELS 3  Xrotation Yrotation Zrotation
										JOINT left_ee
										{
											OFFSET	-80.8	-5.10001	12.1
											CHANNELS 3  Xrotation Yrotation Zrotation
											End Site
											{
												OFFSET	1	0	0
											}
										}
									}
								}
							}
						}
					}
					JOINT right_clavicle
					{
						OFFSET	43.2	22.4	-70.8
						CHANNELS 3  Xrotation Yrotation Zrotation
						JOINT right_shoulder
						{
							OFFSET	93.9	-5.79999	48.7
							CHANNELS 3  Xrotation Yrotation Zrotation
							JOINT right_elbow
							{
								OFFSET	291.4	-30.8	15.2
								CHANNELS 3  Xrotation Yrotation Zrotation
								JOINT right_lowarm_twist
								{
									OFFSET	110.7	-3.89999	13.6
									CHANNELS 3  Xrotation Yrotation Zrotation
									JOINT right_hand
									{
										OFFSET	110.7	-3.89999	13.6
										CHANNELS 3  Xrotation Yrotation Zrotation
										JOINT right_ee
										{
											OFFSET	80.8	-5.10001	12.1
											CHANNELS 3  Xrotation Yrotation Zrotation
											End Site
											{
												OFFSET	1	0	0
											}
										}
									}
								}
							}
						}
					}
				}
			}
		}
	}
	JOINT left_hip
	{
		OFFSET	-82.8	-127.5	0.300001
		CHANNELS 3  Xrotation Yrotation Zrotation
		JOINT left_knee
		{
			OFFSET	-28.2	-396.7	2.2
			CHANNELS 3  Xrotation Yrotation Zrotation
			JOINT left_ankle
			{
				OFFSET	-11.7	-411.3	35.4
				CHANNELS 3  Xrotation Yrotation Zrotation
				JOINT left_toes
				{
					OFFSET	0	-60	-88.6
					CHANNELS 3  Xrotation Yrotation Zrotation
					JOINT left_foot_ee
					{
						OFFSET	-22.5	-16.5	-42.2
						CHANNELS 3  Xrotation Yrotation Zrotation
						End Site
						{
							OFFSET	1	0	0
						}
					}
				}
			}
		}
	}
	JOINT right_hip
	{
		OFFSET	82.8	-127.5	0.300001
		CHANNELS 3  Xrotation Yrotation Zrotation
		JOINT right_knee
		{
			OFFSET	28.2	-396.7	2.2
			CHANNELS 3  Xrotation Yrotation Zrotation
			JOINT right_ankle
			{
				OFFSET	11.7	-411.3	35.4
				CHANNELS 3  Xrotation Yrotation Zrotation
				JOINT right_toes
				{
					OFFSET	0	-60	-88.6
					CHANNELS 3  Xrotation Yrotation Zrotation
					JOINT right_foot_ee
					{
						OFFSET	22.5	-16.5	-42.2
						CHANNELS 3  Xrotation Yrotation Zrotation
						End Site
						{
							OFFSET	1	0	0
						}
					}
				}
			}
		}
	}
}
MOTION
Frames: 5
Frame Time: 0.02
1113.07205438 757.312 -1732.29682133 20.3030784589 57.5423617613 -15.6386834518 -1.84966 -0.0284046 -0.889435 -1.84922 0.0282478 -0.88944 -1.84928 0.242333 -0.85626 -1.85029 0.104067 -0.883783 -5.85537 -0.726993 -5.4758 -5.76584 2.70999 -5.67229 -0.0 0.0 -0.0 8.90995 1.37781 17.3749 -28.18 -22.0619 58.9549 0.195175 -5.52256 0.00941342 83.3493 -4.22998 -8.78718 -1.21008 7.87677 -4.56796 -0.0 0.0 -0.0 9.76907 4.37549 -19.3187 -15.9868 28.4185 -45.9373 0.820271 22.1136 -0.160292 72.4969 3.00349 8.13156 -0.569345 -3.79268 2.16696 0.0 0.0 0.0 5.74088 -6.22314 1.33975 -55.0774 -1.69253 7.96124 40.8442 7.91625 -4.93705 31.1375 -0.0 -0.0 -0.0 0.0 -0.0 2.15908 -5.77722 -2.56053 -31.1974 0.00365799 -4.729 34.2196 5.94764 4.41168 37.7286 -0.0 -0.0 0.0 0.0 0.0 
1113.4016402 748.005 -1748.09850868 19.5710173563 55.4051063336 -13.5131573052 -2.09829 0.00256431 -1.01785 -2.09772 0.067324 -1.01562 -2.09842 0.314966 -0.967899 -2.09969 0.158159 -1.00549 -6.39585 -0.785468 -3.72147 -6.35558 1.26878 -3.8941 -0.0 0.0 -0.0 8.81862 1.40779 17.1906 -28.8132 -21.7531 58.2005 0.202427 -5.72641 0.0101242 84.0317 -4.31096 -8.82051 -1.17759 7.78421 -4.39841 -0.0 0.0 -0.0 9.67434 5.19364 -19.1303 -14.4091 28.7968 -45.1149 0.914654 24.3746 -0.197547 71.9318 2.94324 8.09119 -0.338853 -3.2399 0.880992 0.0 0.0 0.0 15.6386 -2.4671 -2.33556 -54.9575 -1.68079 7.94696 37.0035 7.45369 -4.59195 29.7751 -0.0 -0.0 -0.0 0.0 -0.0 -1.05788 -8.17024 -1.60119 -29.638 -0.0577627 -4.49757 34.3736 6.49892 4.43577 37.7127 -0.0 -0.0 0.0 0.0 0.0 
1116.82995023 748.005 -1751.30763232 19.2306724551 54.7301183829 -13.0980234324 -2.09829 0.00256431 -1.01785 -2.09772 0.067324 -1.01562 -2.09842 0.314966 -0.967899 -2.09969 0.158159 -1.00549 -6.39585 -0.785468 -3.72147 -6.35558 1.26878 -3.8941 -0.0 0.0 -0.0 8.81862 1.40779 17.1906 -28.8132 -21.7531 58.2005 0.202427 -5.72641 0.0101242 84.0317 -4.31096 -8.82051 -1.17759 7.78421 -4.39841 -0.0 0.0 -0.0 9.67434 5.19364 -19.1303 -14.4091 28.7968 -45.1149 0.914654 24.3746 -0.197547 71.9318 2.94324 8.09119 -0.338853 -3.2399 0.880992 0.0 0.0 0.0 15.6386 -2.4671 -2.33556 -54.9575 -1.68079 7.94696 37.0035 7.45369 -4.59195 29.7751 -0.0 -0.0 -0.0 0.0 -0.0 -1.05788 -8.17024 -1.60119 -29.638 -0.0577627 -4.49757 34.3736 6.49892 4.43577 37.7127 -0.0 -0.0 0.0 0.0 0.0 
1113.51868018 748.523 -1757.57320564 19.4730870978 54.6406591586 -13.6465777744 -2.33343 0.082054 -0.909687 -2.33298 0.139771 -0.902623 -2.33484 0.360873 -0.839072 -2.33575 0.223834 -0.885531 -6.78781 -0.889654 -2.46722 -6.77063 0.139981 -2.64859 -0.0 0.0 -0.0 8.75213 1.55972 17.0518 -29.7146 -21.4214 57.8212 0.203214 -5.74852 0.0102029 84.5096 -4.3679 -8.84327 -1.16837 7.92456 -4.2755 -0.0 0.0 -0.0 9.61737 5.82426 -19.0156 -12.6302 29.3082 -44.4826 1.01568 26.7082 -0.241116 71.5354 2.90122 8.06252 -0.136583 -2.57828 -0.177642 0.0 0.0 0.0 21.9811 0.223128 -3.76241 -55.9215 -1.77605 8.06101 34.561 7.08762 -4.35702 29.0317 -0.0 -0.0 -0.0 0.0 -0.0 -3.27014 -10.8661 -2.2209 -27.6547 -0.126728 -4.20102 34.6358 6.89811 4.46831 37.7014 -0.0 -0.0 0.0 0.0 0.0 
1109.68378587 740.401 -1760.82449513 19.2346581786 54.6882138795 -13.9157545049 -2.47171 0.15056 -0.725237 -2.47144 0.196403 -0.714188 -2.47373 0.370177 -0.641569 -2.47421 0.26421 -0.691977 -7.09984 -0.959817 -1.59383 -7.09295 -0.634407 -1.78749 -0.0 0.0 -0.0 8.6743 1.69703 16.8912 -30.5147 -21.1079 57.5004 0.203827 -5.76575 0.0102644 84.859 -4.40965 -8.85961 -1.16139 8.02452 -4.18529 -0.0 0.0 -0.0 9.55165 6.28109 -18.8782 -10.8735 29.8863 -43.6993 1.10388 28.6703 -0.282106 71.2517 2.87127 8.04183 0.0135724 -2.04206 -0.948322 0.0 0.0 0.0 26.1529 2.12054 -4.57157 -56.7026 -1.85465 8.15225 32.83 6.8285 -4.1836 28.5169 -0.0 -0.0 -0.0 0.0 -0.0 -4.75729 -12.7677 -2.85691 -26.0225 -0.175749 -3.95534 34.8357 7.17972 4.4928 37.694 -0.0 -0.0 0.0 0.0 0.0 
